<svg width="1920" height="1080" viewBox="0 0 1920 1080" xmlns="http://www.w3.org/2000/svg"><rect width="1920" height="1080" fill="#3258a6"/><path d="M 0,1080 C 0,1080 0,216 0,216 C 127.7224880382775,217.5693779904306 255.444976076555,219.13875598086125 374,201 C 492.555023923445,182.86124401913875 601.9425837320575,145.01435406698565 739,164 C 876.0574162679425,182.98564593301435 1040.7846889952154,258.80382775119614 1185,292 C 1329.2153110047846,325.19617224880386 1452.9186602870814,315.77033492822966 1572,296 C 1691.0813397129186,276.22966507177034 1805.5406698564593,246.11483253588517 1920,216 C 1920,216 1920,1080 1920,1080 Z" fill="#2a3140" opacity="0.12"/><path d="M 0,1080 C 0,1080 0,432 0,432 C 168.1148325358851,451.1387559808612 336.2296650717702,470.2775119617225 451,451 C 565.7703349282298,431.7224880382775 627.1961722488039,374.02870813397135 750,365 C 872.8038277511961,355.97129186602865 1056.9856459330142,395.60765550239233 1184,409 C 1311.0143540669858,422.39234449760767 1380.8612440191387,409.5406698564593 1494,409 C 1607.1387559808613,408.4593301435407 1763.5693779904307,420.22966507177034 1920,432 C 1920,432 1920,1080 1920,1080 Z" fill="#2a3140" opacity="0.24"/><path d="M 0,1080 C 0,1080 0,648 0,648 C 105.88516746411486,651.8564593301435 211.77033492822972,655.7129186602871 347,668 C 482.2296650717703,680.2870813397129 646.8038277511961,701.0047846889953 770,697 C 893.1961722488039,692.9952153110047 975.0143540669858,664.2679425837321 1109,636 C 1242.9856459330142,607.7320574162679 1429.138755980861,579.9234449760766 1573,582 C 1716.861244019139,584.0765550239234 1818.4306220095696,616.0382775119617 1920,648 C 1920,648 1920,1080 1920,1080 Z" fill="#2a3140" opacity="0.36"/><path d="M 0,1080 C 0,1080 0,864 0,864 C 140.49760765550235,890.5645933014355 280.9952153110047,917.1291866028708 404,909 C 527.0047846889953,900.8708133971292 632.5167464114833,858.0478468899521 766,866 C 899.4832535885167,873.9521531100479 1060.9377990430621,932.6794258373205 1186,937 C 1311.0622009569379,941.3205741626795 1399.732057416268,891.2344497607656 1516,870 C 1632.267942583732,848.7655502392344 1776.1339712918661,856.3827751196172 1920,864 C 1920,864 1920,1080 1920,1080 Z" fill="#2a3140" opacity="0.48"/></svg>